<?xml version="1.0" encoding="UTF-8"?>
<svg id="Layer_1" data-name="Layer 1" xmlns="http://www.w3.org/2000/svg" version="1.1" viewBox="0 0 300 300">
  <defs>
    <style>
      .cls-1 {
        fill: #563d7c;
      }

      .cls-1, .cls-2 {
        stroke-width: 0px;
      }

      .cls-2 {
        fill: #fff;
      }
    </style>
  </defs>
  <path class="cls-1" d="M25,242.8c0,17.8,14.4,32.2,32.2,32.2h185.5c17.8,0,32.2-14.4,32.2-32.2V57.2c0-17.8-14.4-32.2-32.2-32.2H57.2c-17.8,0-32.2,14.4-32.2,32.2v185.5h0Z"/>
  <path class="cls-2" d="M128.7,135.6v-35.4h31.2c3,0,5.8.2,8.6.7,2.8.5,5.2,1.4,7.3,2.6,2.1,1.3,3.8,3,5.1,5.3,1.3,2.3,1.9,5.2,1.9,8.7,0,6.4-1.9,11-5.7,13.8-3.8,2.8-8.7,4.2-14.6,4.2h-33.7ZM95.4,74.3v151.4h73.4c6.8,0,13.4-.8,19.8-2.5s12.2-4.3,17.2-7.8c5-3.5,9-8.1,12-13.7,3-5.6,4.5-12.2,4.5-19.8s-2.3-17.6-6.9-24.3c-4.6-6.7-11.6-11.4-20.9-14.1,6.8-3.3,11.9-7.4,15.4-12.5,3.5-5.1,5.2-11.4,5.2-19.1s-1.2-13-3.5-17.8c-2.3-4.8-5.6-8.7-9.9-11.6-4.2-2.9-9.3-5-15.3-6.3-5.9-1.3-12.5-1.9-19.7-1.9h-71.2ZM128.7,199.8v-41.6h36.3c7.2,0,13,1.7,17.4,5,4.4,3.3,6.6,8.9,6.6,16.6s-.7,7.2-2,9.8-3.1,4.6-5.4,6c-2.3,1.5-4.9,2.5-7.8,3.2-3,.6-6.1,1-9.3,1h-35.6,0Z"/>
</svg>