<?xml version="1.0" encoding="UTF-8"?>
<svg id="Layer_1" data-name="Layer 1" xmlns="http://www.w3.org/2000/svg" version="1.1" viewBox="0 0 300 300">
  <defs>
    <style>
      .cls-1 {
        fill: #ebebeb;
      }

      .cls-1, .cls-2, .cls-3, .cls-4 {
        stroke-width: 0px;
      }

      .cls-2 {
        fill: #33a9dc;
      }

      .cls-3 {
        fill: #1572b6;
      }

      .cls-4 {
        fill: #fff;
      }
    </style>
  </defs>
  <path class="cls-3" d="M59.8,250L39.8,25h220.4l-20.1,225-90.3,25-90-25Z"/>
  <path class="cls-2" d="M150,255.9l72.9-20.2,17.2-192.2h-90.1v212.5Z"/>
  <path class="cls-4" d="M150,124.9h36.5l2.5-28.3h-39v-27.6h69.2l-.7,7.4-6.8,76.1h-61.8v-27.6Z"/>
  <path class="cls-1" d="M150.2,196.6h-.1s-30.7-8.3-30.7-8.3l-2-22h-27.7l3.9,43.3,56.5,15.7h.1s0-28.7,0-28.7Z"/>
  <path class="cls-4" d="M184.2,151.3l-3.3,37-30.8,8.3v28.7l56.6-15.7.4-4.7,4.8-53.6h-27.7Z"/>
  <g>
    <path class="cls-1" d="M150.1,69.1v27.5h0c0,0-66.6,0-66.6,0h0l-.6-6.2-1.3-14-.7-7.4h69.1Z"/>
    <path class="cls-1" d="M150,124.9v27.5h0c0,0-30.3,0-30.3,0h0l-.6-6.2-1.3-14-.7-7.4h32.8Z"/>
  </g>
</svg>