<?xml version="1.0" encoding="UTF-8"?>
<svg id="Layer_1" data-name="Layer 1" xmlns="http://www.w3.org/2000/svg" version="1.1" viewBox="0 0 80 80">
  <defs>
    <style>
      .cls-1 {
        fill: #1677f0;
      }

      .cls-1, .cls-2 {
        stroke-width: 0px;
      }

      .cls-2 {
        fill: #fff;
      }
    </style>
  </defs>
  <path class="cls-1" d="M75,40c0-19.3-15.7-35-35-35S5,20.7,5,40s12.8,31.9,29.5,34.6v-24.5h-8.9v-10.1h8.9v-7.7c0-8.8,5.2-13.6,13.2-13.6s7.8.7,7.8.7v8.6h-4.4c-4.3,0-5.7,2.7-5.7,5.5v6.6h9.7l-1.6,10.1h-8.2v24.5c16.7-2.6,29.5-17.1,29.5-34.6Z"/>
  <path class="cls-2" d="M53.6,50.1l1.6-10.1h-9.7v-6.6c0-2.8,1.4-5.5,5.7-5.5h4.4v-8.6s-4-.7-7.8-.7c-8,0-13.2,4.8-13.2,13.6v7.7h-8.9v10.1h8.9v24.5c1.8.3,3.6.4,5.5.4s3.7-.1,5.5-.4v-24.5h8.2Z"/>
</svg>