<?xml version="1.0" encoding="UTF-8"?>
<svg id="Layer_1" data-name="Layer 1" xmlns="http://www.w3.org/2000/svg" version="1.1" viewBox="0 0 300 300">
  <defs>
    <style>
      .cls-1 {
        fill: #f5de19;
      }

      .cls-1, .cls-2 {
        stroke-width: 0px;
      }

      .cls-2 {
        fill: #000;
      }
    </style>
  </defs>
  <path class="cls-1" d="M25,25h250v250H25V25Z"/>
  <path class="cls-2" d="M192.9,220.3c4.3,8.8,13.4,14.4,23.2,14.3,9.7,0,16-4.9,16-11.6s-6.4-10.9-17.1-15.6l-5.9-2.5c-17-7.2-28.2-16.3-28.2-35.4s13.4-31,34.4-31c13.9-1,27.1,6.4,33.4,18.8l-18.4,11.7c-2.4-6.2-8.5-10.2-15.1-10.1-5.6-.6-10.6,3.5-11.2,9.2,0,.3,0,.6,0,.9,0,7,4.4,9.9,14.4,14.3l5.9,2.5c20,8.6,31.2,17.3,31.2,36.9s-16.6,32.7-38.9,32.7c-17.8,1.1-34.5-8.3-42.8-24l19.1-11.1ZM109.9,222.3c3.7,6.5,7,12.1,15.1,12.1s12.6-3,12.6-14.8v-79.9h23.5v80.2c0,24.3-14.3,35.4-35.1,35.4-15,.8-29-7.7-35.2-21.4l19.1-11.6Z"/>
</svg>