<?xml version="1.0" encoding="UTF-8"?>
<svg id="Layer_1" data-name="Layer 1" xmlns="http://www.w3.org/2000/svg" version="1.1" viewBox="0 0 80 80">
  <defs>
    <style>
      .cls-1 {
        fill: #00b900;
      }

      .cls-1, .cls-2 {
        stroke-width: 0px;
      }

      .cls-2 {
        fill: #fff;
      }
    </style>
  </defs>
  <circle class="cls-1" cx="40" cy="40" r="35"/>
  <g id="FULL_COLOR_ICON" data-name="FULL COLOR ICON">
    <g id="TYPE_A" data-name="TYPE A">
      <g>
        <path class="cls-2" d="M63.7,38.2c0-10.7-10.7-19.4-23.9-19.4s-23.9,8.7-23.9,19.4,8.5,17.6,19.9,19.1c.8.2,1.8.5,2.1,1.2.2.6.2,1.5,0,2.2,0,0-.3,1.7-.3,2-.1.6-.5,2.4,2.1,1.3,2.5-1.1,13.7-8.1,18.7-13.8h0c3.5-3.8,5.1-7.6,5.1-11.9"/>
        <g>
          <path class="cls-1" d="M35,33h-1.7c-.3,0-.5.2-.5.5v10.4c0,.3.2.5.5.5h1.7c.3,0,.5-.2.5-.5v-10.4c0-.3-.2-.5-.5-.5"/>
          <path class="cls-1" d="M46.6,33h-1.7c-.3,0-.5.2-.5.5v6.2l-4.8-6.4s0,0,0,0h0s0,0,0,0c0,0,0,0,0,0,0,0,0,0,0,0,0,0,0,0,0,0,0,0,0,0,0,0,0,0,0,0,0,0,0,0,0,0,0,0,0,0,0,0,0,0,0,0,0,0,0,0,0,0,0,0,0,0,0,0,0,0,0,0,0,0,0,0,0,0,0,0,0,0,0,0,0,0,0,0,0,0,0,0,0,0,0,0,0,0,0,0,0,0,0,0,0,0,0,0h-1.7c-.3,0-.5.2-.5.5v10.4c0,.3.2.5.5.5h1.7c.3,0,.5-.2.5-.5v-6.2l4.8,6.4s0,0,.1.1c0,0,0,0,0,0,0,0,0,0,0,0,0,0,0,0,0,0,0,0,0,0,0,0,0,0,0,0,0,0,0,0,0,0,0,0,0,0,0,0,0,0,0,0,0,0,0,0,0,0,0,0,.1,0h1.7c.3,0,.5-.2.5-.5v-10.4c0-.3-.2-.5-.5-.5"/>
          <path class="cls-1" d="M31,41.8h-4.5v-8.3c0-.3-.2-.5-.5-.5h-1.7c-.3,0-.5.2-.5.5v10.4h0c0,.1,0,.2.1.3,0,0,0,0,0,0,0,0,0,0,0,0,0,0,.2.1.3.1h6.7c.3,0,.5-.2.5-.5v-1.7c0-.3-.2-.5-.5-.5"/>
          <path class="cls-1" d="M55.8,35.6c.3,0,.5-.2.5-.5v-1.7c0-.3-.2-.5-.5-.5h-6.7c-.1,0-.2,0-.3.1,0,0,0,0,0,0,0,0,0,0,0,0,0,0-.1.2-.1.3h0v10.4h0c0,.1,0,.2.1.3,0,0,0,0,0,0s0,0,0,0c0,0,.2.1.3.1h6.7c.3,0,.5-.2.5-.5v-1.7c0-.3-.2-.5-.5-.5h-4.5v-1.8h4.5c.3,0,.5-.2.5-.5v-1.7c0-.3-.2-.5-.5-.5h-4.5v-1.8h4.5Z"/>
        </g>
      </g>
    </g>
  </g>
</svg>