<?xml version="1.0" encoding="UTF-8"?>
<svg id="Layer_1" data-name="Layer 1" xmlns="http://www.w3.org/2000/svg" xmlns:xlink="http://www.w3.org/1999/xlink" version="1.1" viewBox="0 0 80 80">
  <defs>
    <style>
      .cls-1 {
        fill: url(#linear-gradient);
      }

      .cls-1, .cls-2, .cls-3, .cls-4 {
        stroke-width: 0px;
      }

      .cls-2 {
        fill: #c1daea;
      }

      .cls-3 {
        fill: #9cc6d9;
      }

      .cls-4 {
        fill: #fff;
      }
    </style>
    <linearGradient id="linear-gradient" x1="40" y1="75" x2="40" y2="5" gradientUnits="userSpaceOnUse">
      <stop offset="0" stop-color="#0093d4"/>
      <stop offset="1" stop-color="#00b0e5"/>
    </linearGradient>
  </defs>
  <circle class="cls-1" cx="40" cy="40" r="35"/>
  <path class="cls-2" d="M28.7,42.6l4.2,11.5s.5,1.1,1.1,1.1,8.8-8.6,8.8-8.6l9.2-17.8-23.1,10.8v3Z"/>
  <path class="cls-3" d="M34.2,45.5l-.8,8.5s-.3,2.6,2.3,0c2.6-2.6,5.1-4.6,5.1-4.6l-6.5-3.9Z"/>
  <path class="cls-4" d="M28.8,43l-8.5-2.8s-1-.4-.7-1.4c0-.2.2-.4.6-.6,1.9-1.3,35-13.2,35-13.2,0,0,.9-.3,1.5-.1.3,0,.4.2.5.6,0,.1,0,.4,0,.8,0,.2,0,.4,0,.7-.2,3.3-6.2,27.6-6.2,27.6,0,0-.4,1.4-1.7,1.5-.5,0-1,0-1.7-.7-2.5-2.2-11.3-8.1-13.3-9.4-.1,0-.1-.2-.2-.3,0-.1.1-.3.1-.3,0,0,15.3-13.6,15.7-15,0-.1,0-.2-.2-.1-1,.4-18.6,11.5-20.6,12.7-.1,0-.4,0-.4,0Z"/>
</svg>