<?xml version="1.0" encoding="UTF-8"?>
<svg id="Layer_1" data-name="Layer 1" xmlns="http://www.w3.org/2000/svg" xmlns:xlink="http://www.w3.org/1999/xlink" version="1.1" viewBox="0 0 80 80">
  <defs>
    <style>
      .cls-1 {
        fill: url(#linear-gradient);
      }

      .cls-1, .cls-2 {
        stroke-width: 0px;
      }

      .cls-2 {
        fill: #fff;
        fill-rule: evenodd;
      }
    </style>
    <linearGradient id="linear-gradient" x1="15.8" y1="64.2" x2="65.2" y2="14.8" gradientUnits="userSpaceOnUse">
      <stop offset="0" stop-color="#fd7853"/>
      <stop offset="1" stop-color="#fb267d"/>
    </linearGradient>
  </defs>
  <circle class="cls-1" cx="40" cy="40" r="35"/>
  <g id="WA_Logo" data-name="WA Logo">
    <path class="cls-2" d="M61,48.5c-.2-.4-.9-.7-1.9-1.1-1-.5-5.8-2.9-6.7-3.2s-1.6-.5-2.2.5c-.7,1-2.5,3.2-3.1,3.9-.6.7-1.1.7-2.1.2-1-.5-4.2-1.5-7.9-4.9-2.9-2.6-4.9-5.8-5.5-6.8-.6-1,0-1.5.4-2,.4-.4,1-1.1,1.5-1.7.5-.6.7-1,1-1.6.3-.7.2-1.2,0-1.7s-2.2-5.3-3-7.3c-.8-1.9-1.6-1.7-2.2-1.7-.6,0-1.2,0-1.9,0s-1.7.2-2.6,1.2c-.9,1-3.4,3.4-3.4,8.2s3.5,9.5,4,10.2,6.9,10.6,16.8,14.9c2.3,1,4.2,1.6,5.6,2.1,2.4.7,4.5.6,6.2.4,1.9-.3,5.8-2.4,6.6-4.7.8-2.3.8-4.3.6-4.7Z"/>
  </g>
</svg>