<?xml version="1.0" encoding="UTF-8"?>
<svg id="Layer_1" data-name="Layer 1" xmlns="http://www.w3.org/2000/svg" version="1.1" viewBox="0 0 300 300">
  <defs>
    <style>
      .cls-1 {
        fill: #61dafb;
        stroke-width: 0px;
      }
    </style>
  </defs>
  <path class="cls-1" d="M275,150c0-16.6-20.7-32.3-52.5-42,7.3-32.4,4.1-58.2-10.3-66.4-3.3-1.9-7.2-2.9-11.4-2.9v11.4c2.3,0,4.2.5,5.8,1.3,6.9,4,9.9,19.1,7.6,38.6-.6,4.8-1.5,9.8-2.6,15-10-2.4-20.9-4.3-32.4-5.6-6.9-9.4-14-18-21.2-25.5,16.6-15.4,32.2-23.9,42.8-23.9v-11.4c-14,0-32.4,10-50.9,27.3-18.5-17.2-36.9-27.1-50.9-27.1v11.4c10.5,0,26.2,8.4,42.8,23.7-7.1,7.5-14.3,16-21,25.4-11.5,1.2-22.4,3.1-32.4,5.6-1.2-5.1-2-10-2.6-14.8-2.4-19.5.6-34.6,7.4-38.6,1.5-.9,3.5-1.3,5.9-1.3v-11.4c-4.3,0-8.2.9-11.5,2.9-14.3,8.3-17.5,34-10.1,66.3-31.7,9.8-52.3,25.4-52.3,41.9s20.7,32.3,52.5,42c-7.3,32.4-4.1,58.2,10.3,66.4,3.3,1.9,7.2,2.9,11.5,2.9,14,0,32.4-10,50.9-27.3,18.5,17.2,36.9,27.1,50.9,27.1s8.2-.9,11.5-2.9c14.3-8.3,17.5-34,10.1-66.3,31.6-9.7,52.2-25.4,52.2-41.9h0ZM208.7,116c-1.9,6.6-4.2,13.4-6.9,20.1-2.1-4.1-4.3-8.2-6.7-12.2-2.3-4.1-4.8-8.1-7.3-11.9,7.2,1.1,14.2,2.4,20.9,4h0ZM185.3,170.3c-4,6.9-8.1,13.4-12.3,19.5-7.6.7-15.3,1-23,1s-15.4-.4-22.9-1c-4.2-6.1-8.4-12.5-12.3-19.4-3.9-6.7-7.4-13.5-10.6-20.3,3.2-6.8,6.7-13.7,10.5-20.3,4-6.9,8.1-13.4,12.3-19.5,7.6-.7,15.3-1,23-1s15.4.4,22.9,1c4.2,6.1,8.4,12.5,12.3,19.4,3.9,6.7,7.4,13.5,10.6,20.3-3.2,6.8-6.7,13.7-10.5,20.3h0ZM201.8,163.7c2.8,6.8,5.1,13.7,7,20.3-6.7,1.6-13.7,3-21,4.1,2.5-3.9,5-7.9,7.3-12.1,2.3-4.1,4.5-8.2,6.6-12.3h0ZM150.1,218.1c-4.7-4.9-9.5-10.3-14.2-16.3,4.6.2,9.3.4,14,.4s9.5-.1,14.2-.4c-4.6,6-9.3,11.4-14,16.3ZM112.2,188c-7.2-1.1-14.2-2.4-20.9-4,1.9-6.6,4.2-13.4,6.9-20.1,2.1,4.1,4.3,8.2,6.7,12.2s4.8,8.1,7.3,11.9ZM149.8,82c4.7,4.9,9.5,10.3,14.2,16.3-4.6-.2-9.3-.4-14-.4s-9.5.1-14.2.4c4.6-6,9.3-11.4,14-16.3ZM112.1,112c-2.5,3.9-5,7.9-7.3,12.1-2.3,4.1-4.5,8.2-6.6,12.2-2.8-6.8-5.1-13.7-7-20.3,6.7-1.6,13.7-3,21-4h0ZM66,175.8c-18-7.7-29.7-17.8-29.7-25.8s11.7-18.1,29.7-25.8c4.4-1.9,9.2-3.6,14.1-5.1,2.9,10,6.7,20.4,11.5,31-4.7,10.6-8.5,20.9-11.3,30.9-5-1.6-9.8-3.3-14.3-5.2h0ZM93.4,248.6c-6.9-4-9.9-19.1-7.6-38.6.6-4.8,1.5-9.8,2.6-15,10,2.4,20.9,4.3,32.4,5.6,6.9,9.4,14,18,21.2,25.5-16.6,15.4-32.2,23.9-42.8,23.9-2.3,0-4.2-.5-5.8-1.4h0ZM214.3,209.8c2.4,19.5-.6,34.6-7.4,38.6-1.5.9-3.5,1.3-5.9,1.3-10.5,0-26.2-8.4-42.8-23.7,7.1-7.5,14.3-16,21-25.4,11.5-1.2,22.4-3.1,32.4-5.6,1.2,5.1,2.1,10.1,2.6,14.8ZM233.9,175.8c-4.4,1.9-9.2,3.6-14.1,5.1-2.9-10-6.7-20.4-11.5-31,4.7-10.6,8.5-20.9,11.3-30.9,5,1.6,9.8,3.3,14.3,5.2,18,7.7,29.7,17.8,29.7,25.8,0,8-11.7,18.1-29.8,25.8h0Z"/>
  <circle class="cls-1" cx="149.9" cy="150" r="23.3"/>
</svg>