<?xml version="1.0" encoding="UTF-8"?>
<svg id="Layer_1" data-name="Layer 1" xmlns="http://www.w3.org/2000/svg" xmlns:xlink="http://www.w3.org/1999/xlink" version="1.1" viewBox="0 0 300 300">
  <defs>
    <style>
      .cls-1 {
        fill: url(#linear-gradient);
        stroke-width: 0px;
      }
    </style>
    <linearGradient id="linear-gradient" x1="1.1" y1="-.2" x2="2.1" y2=".1" gradientTransform="translate(-255 154.6) scale(256 153.6)" gradientUnits="userSpaceOnUse">
      <stop offset="0" stop-color="#2298bd"/>
      <stop offset="1" stop-color="#0ed7b5"/>
    </linearGradient>
  </defs>
  <path class="cls-1" d="M150,75c-33.3,0-54.2,16.7-62.5,50,12.5-16.7,27.1-22.9,43.8-18.8,9.5,2.4,16.3,9.3,23.8,16.9,12.3,12.4,26.4,26.8,57.4,26.8s54.2-16.7,62.5-50c-12.5,16.7-27.1,22.9-43.8,18.8s-16.3-9.3-23.8-16.9c-12.3-12.4-26.4-26.8-57.4-26.8ZM87.5,150c-33.3,0-54.2,16.7-62.5,50,12.5-16.7,27.1-22.9,43.7-18.7,9.5,2.4,16.3,9.3,23.8,16.9,12.3,12.4,26.4,26.8,57.4,26.8s54.2-16.7,62.5-50c-12.5,16.7-27.1,22.9-43.8,18.7-9.5-2.4-16.3-9.3-23.8-16.9-12.3-12.4-26.4-26.8-57.4-26.8h.1Z"/>
</svg>