<?xml version="1.0" encoding="UTF-8"?>
<svg id="Layer_1" data-name="Layer 1" xmlns="http://www.w3.org/2000/svg" version="1.1" viewBox="0 0 300 300">
  <defs>
    <style>
      .cls-1 {
        fill: #3178c6;
      }

      .cls-1, .cls-2 {
        stroke-width: 0px;
      }

      .cls-2 {
        fill: #fff;
        fill-rule: evenodd;
      }
    </style>
  </defs>
  <rect class="cls-1" x="25" y="25" width="250" height="250" rx="11.7" ry="11.7"/>
  <path class="cls-2" d="M170,219.3v27.4c5,2.5,10.3,4.2,15.7,5.1,6.3,1.2,12.7,1.7,19.2,1.7,6.3,0,12.5-.6,18.6-1.9,5.5-1.1,10.8-3.2,15.5-6.3,4.4-2.8,8-6.7,10.5-11.3,4.5-9.5,5.1-20.4,1.7-30.3-1.5-3.7-3.6-7.1-6.4-10-3-3.1-6.3-5.7-10-7.8-4.2-2.5-8.6-4.7-13.2-6.6-3.6-1.5-6.8-2.9-9.6-4.3-2.5-1.2-5-2.6-7.3-4.3-1.8-1.3-3.4-2.8-4.6-4.6-1.1-1.6-1.6-3.6-1.6-5.5,0-1.8.5-3.6,1.4-5.1,1.1-1.6,2.5-2.9,4.1-3.9,2-1.2,4.2-2,6.5-2.5,2.8-.6,5.7-.9,8.5-.9,2.4,0,4.8.2,7.2.5,2.6.3,5.1.9,7.6,1.6,2.6.7,5,1.6,7.5,2.7,2.3,1,4.6,2.3,6.7,3.8v-25.6c-4.4-1.7-9-2.9-13.6-3.6-5.6-.8-11.3-1.2-17-1.2-6.2,0-12.4.7-18.4,2.1-5.5,1.2-10.6,3.5-15.3,6.5-4.3,2.9-7.9,6.8-10.5,11.3-2.7,5.1-4,10.7-3.8,16.5-.2,7.6,2.3,15,7,20.9,5.8,6.6,13.2,11.6,21.4,14.6,3.8,1.5,7.2,3.1,10.5,4.5,2.9,1.3,5.7,2.8,8.4,4.6,2.2,1.4,4,3.2,5.6,5.2,1.4,1.9,2.1,4.1,2.1,6.4,0,1.7-.4,3.4-1.3,4.9-.9,1.6-2.3,3-3.9,3.9-2,1.2-4.2,2.1-6.5,2.6-3,.7-6,1-9.1.9-6,0-11.9-1.1-17.6-3.1-5.9-2.1-11.3-5.3-16.1-9.3ZM124,151.1h35.7v-22.6H60.2v22.6h35.6v100.5h28.3v-100.5Z"/>
</svg>