<?xml version="1.0" encoding="UTF-8"?>
<svg id="Layer_1" data-name="Layer 1" xmlns="http://www.w3.org/2000/svg" version="1.1" viewBox="0 0 300 300">
  <defs>
    <style>
      .cls-1 {
        fill: #fff;
        stroke-width: 0px;
      }
    </style>
  </defs>
  <g id="W_Mark" data-name="W Mark">
    <path class="cls-1" d="M150,71.7c10.6,0,20.8,2.1,30.5,6.2,4.6,2,9.1,4.4,13.3,7.2,4.1,2.8,8.1,6,11.6,9.6,3.5,3.5,6.8,7.4,9.6,11.6s5.3,8.7,7.2,13.3c4.1,9.7,6.2,19.9,6.2,30.5s-2.1,20.8-6.2,30.5c-2,4.6-4.4,9.1-7.2,13.3-2.8,4.1-6,8.1-9.6,11.6-3.5,3.5-7.4,6.8-11.6,9.6-4.2,2.8-8.7,5.3-13.3,7.2-9.7,4.1-19.9,6.2-30.5,6.2s-20.8-2.1-30.5-6.2c-4.6-2-9.1-4.4-13.3-7.2-4.1-2.8-8.1-6-11.6-9.6-3.5-3.5-6.8-7.4-9.6-11.6-2.8-4.2-5.3-8.7-7.2-13.3-4.1-9.7-6.2-19.9-6.2-30.5s2.1-20.8,6.2-30.5c2-4.6,4.4-9.1,7.2-13.3,2.8-4.1,6-8.1,9.6-11.6,3.5-3.5,7.4-6.8,11.6-9.6,4.2-2.8,8.7-5.3,13.3-7.2,9.7-4.1,19.9-6.2,30.5-6.2M150,66.7c-46,0-83.3,37.3-83.3,83.3s37.3,83.3,83.3,83.3,83.3-37.3,83.3-83.3-37.3-83.3-83.3-83.3h0Z"/>
    <path class="cls-1" d="M80.6,150c0,27.5,16,51.2,39.1,62.5l-33.1-90.8c-3.9,8.6-6,18.2-6,28.3ZM196.9,146.5c0-8.6-3.1-14.5-5.7-19.2-3.5-5.7-6.8-10.6-6.8-16.3s4.8-12.3,11.7-12.3.6,0,.9,0c-12.4-11.3-28.8-18.2-46.9-18.2s-45.6,12.4-58,31.3h4.5c7.3,0,18.5-.9,18.5-.9,3.7-.2,4.2,5.3.4,5.7,0,0-3.8.4-7.9.7l25.3,75.2,15.2-45.6-10.8-29.6c-3.7-.2-7.3-.7-7.3-.7-3.7-.2-3.3-5.9.4-5.7,0,0,11.5.9,18.3.9s18.5-.9,18.5-.9c3.7-.2,4.2,5.3.4,5.7,0,0-3.8.4-7.9.7l25.1,74.6,7.2-22.7c3.2-9.9,5-16.9,5-22.9v.2ZM151.2,156.1l-20.8,60.5c6.2,1.8,12.8,2.8,19.6,2.8s15.8-1.4,23.1-3.9c-.2-.3-.4-.6-.5-1l-21.3-58.5h-.1ZM210.9,116.7c.3,2.2.5,4.6.5,7.1,0,7-1.3,15-5.3,24.9l-21.2,61.3c20.6-12,34.5-34.4,34.5-60s-3.1-23.4-8.5-33.3Z"/>
  </g>
</svg>